<svg xmlns="http://www.w3.org/2000/svg" width="240" height="180" viewBox="0 0 240 180"><g fill="none" fill-rule="evenodd" transform="translate(10 45)"><path fill="#1D1C1B" d="M106.42 63.76l-1.29-1.62-.65.5c-1.07.84-1.98 1.38-3.24 1.33a3.34 3.34 0 0 1-3.38-3.3c-.03-1.42.85-2.57 2.17-3.43l.9-.59-.25-.35c-.57-.77-.94-1.32-.94-2.26a2.51 2.51 0 0 1 2.57-2.5c1.5 0 2.55 1.04 2.6 2.42.03 1.02-.6 1.72-1.44 2.39l-.7.52 2.5 3.26 1.36-1.53.93.78-1.47 1.75 2 2.63h-1.67zm-4.81-6.18l-.98.63c-.9.63-1.53 1.61-1.5 2.4a2.23 2.23 0 0 0 1.68 2.12c.65.19 1.69-.11 2.44-.74l1.08-.89-2.72-3.52zm.67-4.9c-.7.01-1.21.59-1.26 1.3-.02.45.13.74.4 1.1l.6.85.82-.62c.52-.4.86-.86.78-1.53-.1-.76-.67-1.13-1.34-1.1zM25.66 64.03a6.27 6.27 0 0 1-6.2-6.26 6.24 6.24 0 0 1 12.46 0 6.29 6.29 0 0 1-6.26 6.26zm-.1-11.17a4.96 4.96 0 0 0 .1 9.92c2.72.01 4.99-2.32 4.94-5.05a4.92 4.92 0 0 0-5.04-4.87zm-14.2 10.9v-5.85H5.23v5.85H3.87V51.74h1.3v4.91h6.15v-4.91h1.35v12.02h-1.32zm67.49.24a3.64 3.64 0 0 1-3.6-2.8l-.08-.36 1.22-.34.15.4c.38 1.06 1.15 1.8 2.26 1.81 1.3.02 2.46-1.02 2.44-2.3a2.13 2.13 0 0 0-1.26-2l-1.9-.88c-1.3-.6-2.3-1.5-2.3-2.95 0-1.74 1.54-3.03 3.28-3.08 1.32-.02 2.23.57 2.98 1.68l.14.19-1.03.68-.3-.38c-.45-.64-1.03-.96-1.8-.91-1.03.03-1.97.78-1.96 1.8.02.85.58 1.36 1.33 1.7l2 .93c1.32.6 2.08 1.55 2.18 2.97A3.72 3.72 0 0 1 78.85 64zm-14.66-.24V51.74h1.34V62.5h3.24v1.26h-4.58zm105.9.27a6.26 6.26 0 0 1-6.2-6.26 6.24 6.24 0 0 1 12.47 0 6.29 6.29 0 0 1-6.27 6.26zm-.1-11.17a4.96 4.96 0 0 0 .1 9.92c2.73.01 5-2.32 4.94-5.05a4.91 4.91 0 0 0-5.04-4.87zM153.38 64a3.64 3.64 0 0 1-3.6-2.8l-.09-.36 1.23-.34.14.4c.39 1.06 1.15 1.8 2.27 1.81 1.29.02 2.45-1.02 2.44-2.3a2.13 2.13 0 0 0-1.26-2l-1.9-.88c-1.3-.6-2.3-1.5-2.3-2.95-.01-1.74 1.53-3.03 3.27-3.08 1.33-.02 2.24.57 2.99 1.68l.14.19-1.04.68-.28-.38c-.47-.64-1.04-.96-1.82-.91-1.02.03-1.96.78-1.95 1.8.02.85.57 1.36 1.32 1.7l2.02.93c1.3.6 2.07 1.55 2.16 2.97a3.72 3.72 0 0 1-3.74 3.84zm-14.82-11v3.54h4.67v1.2h-4.73v4.76h4.86v1.26h-6.19V51.74h6.22V53h-4.83zm73.99 11a3.64 3.64 0 0 1-3.61-2.8l-.08-.36 1.23-.34.14.4c.39 1.06 1.15 1.8 2.27 1.81 1.29.02 2.45-1.02 2.44-2.3a2.12 2.12 0 0 0-1.26-2l-1.9-.88c-1.3-.6-2.3-1.5-2.3-2.95-.01-1.74 1.53-3.03 3.27-3.08 1.33-.02 2.24.57 2.98 1.68l.15.19-1.04.68-.29-.38c-.46-.64-1.03-.96-1.81-.91-1.02.03-1.97.78-1.95 1.8.02.85.57 1.36 1.32 1.7l2.01.93c1.31.6 2.08 1.55 2.17 2.97a3.72 3.72 0 0 1-3.74 3.84zM199.3 53v10.76h-1.33V53h-2.84v-1.26h7.1V53h-2.93zm-10.96 10.76l-3.64-5.3h-.36v5.3h-1.33V51.74h2.28c2.1 0 3.96.88 3.9 3.38-.05 2.12-1.34 3.1-3.05 3.24l3.81 5.4h-1.6zM185.43 53h-1.05v4.35h.86c1.3 0 2.6-.76 2.62-2.23 0-1.72-1.15-2.12-2.43-2.12zm-56.85 10.76l-3.64-5.3h-.37v5.3h-1.32V51.74h2.28c2.09 0 3.96.88 3.9 3.38-.05 2.12-1.35 3.1-3.05 3.24l3.8 5.4h-1.6zM125.66 53h-1.05v4.35h.85c1.3 0 2.6-.76 2.62-2.23 0-1.72-1.14-2.12-2.42-2.12zm-72.97 0v3.54h4.68v1.2h-4.74v4.76h4.87v1.26h-6.2V51.74h6.23V53h-4.84zm-11.35 0v10.76h-1.32V53h-2.84v-1.26h7.1V53h-2.94zM13.12 42.01C6.52 42.14 1.13 36.5 1 29.82A12.59 12.59 0 0 1 13.67 17.1c4.11.06 6.98 1.4 9.6 4.6l-2.36 2.1a9.3 9.3 0 0 0-7.34-3.67c-5.42-.13-9.4 4.56-9.4 9.82 0 4.91 3.75 8.9 9.11 9.03 3.96.1 7.66-2.68 7.76-6.76h-5.65v-2.9h9.12v1.34c0 6.22-4.4 11.2-11.39 11.35zm203.16-.54l-2.9-6.22h-10.4l-2.78 6.22h-3.45l11.23-25 11.83 25h-3.53zm-8.3-17.58l-3.83 8.68h7.95l-4.12-8.68zm-20 17.58h3.29V17.38h-3.29v24.09zm-17.7 0V17.39h3.25v20.89h7.3v3.19h-10.55zm-18.56 0l-.07-24.08h12.73v3.18h-9.5v6.16h9.37v2.84h-9.38v8.7h9.5v3.2h-12.65zm-9.38 0l-3.07-15.12-7.4 16.04-7.46-15.53-3.16 14.6H118l5.14-24.84 8.7 18.56 8.58-18.6 5.17 24.89h-3.25zm-59.97-17.2v17.2h-3.32V16.59l18.12 17.8v-17h3.26v24.78l-18.06-17.9zm-12.31 17.2l-2.9-6.22h-10.4l-2.78 6.22h-3.44l11.23-25 11.83 25h-3.54zm-8.3-17.58l-3.82 8.68h7.94l-4.11-8.68zM42.26 41.47l-7.4-10.3h-1.06v10.3h-3.38V17.39h5.3c4.14 0 8.32 1.2 8.48 6.57.07 3.5-2.1 5.96-5.74 7.01l7.72 10.5h-3.92zm-6.77-21.28H33.8v8.3h1.28c2.84 0 5.9-1.38 5.77-4.44-.13-3.22-2.77-3.86-5.36-3.86z"/><path fill="#BF311A" d="M212 6.34c-.76.29-4.1.83-4.1 3.89v4.49c0-1.54 1.1-3.1 2.4-3.37 0 0 2.97-.67 3.82-.9 1.32-.35 4.14-1.27 4.14-3.69V.33c-.07 3.04-1.55 4.12-2.53 4.74-1.32.84-2.76.9-3.73 1.27"/></g></svg>