<?xml version="1.0" standalone="no"?>
<!DOCTYPE svg PUBLIC "-//W3C//DTD SVG 20010904//EN"
 "http://www.w3.org/TR/2001/REC-SVG-20010904/DTD/svg10.dtd">
<svg version="1.0" xmlns="http://www.w3.org/2000/svg"
 width="1403.000000pt" height="1403.000000pt" viewBox="0 0 1403.000000 1403.000000"
 preserveAspectRatio="xMidYMid meet">
<metadata>
Created by potrace 1.14, written by Peter Selinger 2001-2017
</metadata>
<g transform="translate(0.000000,1403.000000) scale(0.100000,-0.100000)"
fill="#000000" stroke="none">
<path d="M6338 14020 c-97 -17 -234 -111 -300 -208 -17 -25 -41 -73 -53 -108
l-22 -64 -6 55 c-10 99 -59 147 -111 108 -37 -27 -36 -80 4 -118 l30 -29 -30
-12 c-63 -27 -48 -93 35 -154 31 -23 54 -44 52 -47 -5 -4 -29 -10 -49 -12 -13
-1 -9 -46 5 -63 31 -38 74 -60 302 -150 55 -22 125 -25 168 -9 39 15 52 14 38
-3 -29 -35 -18 -86 19 -86 22 0 50 31 50 57 0 16 5 20 19 16 33 -8 54 25 49
78 -5 46 -4 47 21 46 25 -2 26 0 25 43 -2 51 -60 181 -95 211 -32 27 -33 23
-5 -13 28 -38 45 -92 39 -128 -2 -14 -14 -45 -26 -70 -65 -127 -251 -143 -371
-32 -133 124 -125 320 19 471 160 168 413 169 622 3 77 -61 174 -200 188 -270
2 -9 8 -37 14 -62 10 -44 8 -199 -4 -253 -18 -84 -78 -219 -137 -305 -94 -137
-266 -255 -448 -308 -97 -28 -324 -26 -442 4 -298 74 -531 237 -695 484 -91
139 -149 267 -180 400 -22 96 -26 138 -27 275 -1 90 -4 163 -7 163 -3 0 -6 -6
-6 -12 0 -7 -4 -38 -8 -68 -40 -298 27 -577 202 -845 l26 -40 -29 26 c-113
101 -282 130 -410 68 -46 -22 -109 -80 -130 -120 -12 -24 -17 -26 -53 -19
-164 30 -337 -96 -373 -272 l-12 -58 -29 47 c-71 115 -162 199 -296 273 -284
155 -655 137 -937 -45 -243 -158 -404 -423 -460 -759 -12 -78 -13 -318 0 -376
17 -76 22 -120 15 -120 -4 0 -10 4 -13 8 -11 18 -163 99 -206 110 -138 35
-256 35 -377 2 -83 -22 -205 -84 -254 -128 -163 -145 -214 -394 -121 -585 25
-50 26 -55 8 -38 -32 29 -98 61 -127 61 -36 0 -51 -21 -47 -67 3 -43 31 -63
93 -65 25 -1 33 -4 25 -12 -12 -12 -13 -56 -2 -72 17 -26 51 -33 128 -27 l78
6 -16 -25 c-41 -62 48 -82 159 -35 32 13 83 34 113 47 105 42 118 49 154 81
20 17 45 50 55 72 l18 40 13 -37 c14 -43 30 -52 59 -36 25 13 27 47 4 72 -16
17 -15 19 5 33 29 21 21 53 -23 90 -31 27 -49 55 -26 40 14 -8 23 12 16 35
-11 35 -163 101 -230 99 l-40 -1 53 -13 c125 -30 180 -162 118 -282 -30 -59
-77 -96 -152 -119 -64 -19 -102 -18 -178 7 -81 27 -137 80 -179 168 -27 56
-30 76 -31 155 -1 50 2 104 6 119 24 98 129 221 230 270 281 136 604 35 767
-240 47 -80 99 -229 108 -310 19 -175 -1 -299 -72 -448 -92 -189 -241 -329
-473 -441 -192 -93 -416 -128 -632 -97 -287 41 -509 153 -721 363 -108 108
-117 106 -26 -5 180 -217 405 -356 672 -415 44 -10 69 -19 55 -20 -150 -10
-292 -109 -339 -234 -18 -49 -21 -134 -8 -192 4 -16 -4 -28 -31 -49 -138 -104
-165 -311 -60 -462 l29 -43 -26 10 c-37 14 -118 24 -195 24 -280 1 -544 -139
-715 -379 -175 -245 -219 -560 -121 -868 81 -251 292 -519 515 -655 39 -24 40
-23 -69 -47 -216 -47 -391 -216 -471 -456 -26 -78 -28 -96 -25 -185 3 -55 9
-112 14 -129 22 -72 100 -184 161 -233 51 -41 146 -92 172 -92 27 0 24 -15 -3
-17 -52 -4 -110 -27 -125 -50 -13 -19 -13 -28 -3 -52 21 -52 80 -51 137 2 19
17 23 18 23 4 0 -26 29 -47 65 -47 32 0 62 24 106 88 15 20 33 32 35 22 3 -18
27 -50 38 -50 37 0 105 94 131 180 4 14 20 52 35 86 47 103 54 173 24 248 -6
16 -4 17 14 7 37 -20 71 -14 78 14 8 32 -11 55 -46 55 -22 0 -26 4 -25 23 4
39 -20 55 -76 50 -46 -4 -49 -3 -47 18 4 29 -34 40 -82 23 -70 -24 -148 -66
-171 -92 l-24 -26 30 19 c85 53 114 57 191 21 182 -85 156 -339 -46 -441 -43
-22 -67 -27 -127 -28 -65 0 -82 4 -147 37 -90 44 -156 113 -199 206 -51 111
-41 269 25 390 56 102 146 197 230 242 187 100 395 95 612 -14 141 -71 234
-155 323 -290 140 -216 159 -482 56 -793 -90 -272 -309 -513 -600 -659 -158
-79 -299 -112 -518 -122 -106 -5 -153 -13 -84 -15 19 -1 48 -3 64 -5 53 -6
179 -6 225 1 161 23 196 32 340 87 58 23 142 68 191 104 49 36 76 46 42 17
-72 -64 -121 -230 -99 -337 17 -86 95 -192 155 -211 15 -4 20 -12 16 -24 -53
-167 92 -374 284 -406 l43 -7 -51 -29 c-119 -68 -248 -223 -310 -373 -59 -144
-80 -325 -57 -496 10 -70 51 -200 83 -265 102 -201 292 -378 503 -465 41 -17
84 -35 95 -40 81 -34 295 -67 421 -64 66 1 156 10 205 19 91 18 92 18 83 4 -4
-8 -26 -43 -49 -79 -47 -76 -64 -120 -80 -212 -40 -228 49 -488 210 -616 61
-48 95 -66 165 -86 113 -32 255 -23 349 22 23 11 41 16 41 12 0 -5 -5 -12 -10
-15 -17 -10 -50 -82 -50 -108 0 -13 8 -31 18 -40 45 -41 112 2 112 73 0 37 2
40 20 30 55 -30 105 27 94 108 -11 78 -10 87 6 83 54 -14 58 -13 67 15 13 39
0 101 -41 192 -19 43 -37 88 -41 102 -22 76 -80 147 -145 178 l-34 16 36 9
c42 10 56 41 32 68 -18 19 -50 17 -72 -5 -13 -13 -17 -12 -32 6 -23 29 -59 18
-89 -28 -22 -31 -26 -34 -37 -20 -29 41 -68 2 -109 -111 -14 -39 -25 -86 -24
-104 0 -32 1 -32 13 13 17 64 39 94 87 119 63 32 117 35 178 9 91 -40 140
-117 146 -230 7 -112 -51 -214 -156 -278 -67 -41 -189 -57 -289 -38 -110 21
-230 121 -286 240 -141 296 -18 629 291 784 73 37 173 71 234 80 80 12 253 5
326 -12 95 -23 217 -83 302 -150 201 -157 365 -466 390 -731 12 -124 9 -200
-13 -340 -19 -123 -92 -318 -156 -417 -80 -125 -230 -295 -294 -335 -10 -6
-14 -12 -7 -12 6 -1 35 18 65 41 178 140 268 250 359 435 56 113 107 272 110
342 1 14 6 -2 10 -37 17 -116 84 -230 167 -283 75 -48 140 -60 240 -45 36 5
52 4 52 -3 0 -19 72 -92 109 -110 48 -24 85 -33 153 -36 78 -4 132 10 200 50
55 33 57 33 48 9 -16 -40 -24 -115 -23 -204 2 -266 132 -516 358 -687 99 -75
272 -153 371 -169 22 -3 55 -9 74 -13 40 -8 194 -7 260 3 169 23 391 119 535
229 82 63 199 185 258 267 77 108 72 104 74 77 4 -53 38 -166 65 -217 124
-239 412 -398 648 -360 75 12 77 12 142 44 104 50 212 166 247 266 23 65 27
68 30 18 3 -50 34 -115 58 -120 23 -6 69 17 77 37 12 32 6 55 -24 88 l-29 34
25 11 c59 28 46 92 -30 150 -54 40 -59 54 -25 62 31 8 31 45 0 76 -30 31 -75
54 -166 89 -36 13 -78 31 -93 39 -58 32 -128 39 -212 20 -31 -7 -34 -6 -22 9
7 9 12 28 10 44 -6 52 -78 39 -78 -13 0 -20 -5 -24 -30 -24 -38 0 -50 -26 -43
-90 4 -37 3 -43 -8 -33 -10 10 -16 10 -30 -3 -15 -13 -16 -21 -5 -67 15 -62
61 -155 89 -179 30 -27 29 -23 -3 29 -35 55 -38 99 -11 160 26 56 70 96 128
114 58 19 110 16 167 -10 110 -48 186 -165 180 -275 -4 -82 -8 -98 -40 -157
-59 -107 -162 -185 -281 -212 -146 -33 -318 23 -445 145 -184 177 -229 414
-129 675 89 231 293 420 520 485 116 33 247 41 368 23 23 -3 45 -6 48 -6 15 0
160 -44 220 -66 244 -92 441 -268 586 -523 108 -192 155 -378 154 -613 0 -53
3 -97 8 -97 4 0 7 12 8 28 0 15 3 43 5 62 13 114 10 211 -11 335 -22 137 -129
385 -197 459 -31 34 -19 38 20 7 20 -17 64 -43 97 -58 51 -23 73 -28 145 -28
70 0 95 5 141 26 60 29 105 67 134 116 18 31 18 31 89 26 57 -4 82 -1 129 17
105 40 202 158 223 274 l7 39 15 -29 c8 -16 30 -49 50 -74 251 -319 706 -414
1092 -228 194 93 343 243 443 444 123 246 162 544 106 805 -6 27 -9 53 -6 55
3 3 37 -16 78 -42 114 -74 168 -88 339 -88 132 0 152 3 220 27 151 55 277 155
330 262 68 139 70 316 5 446 l-23 46 50 -33 c28 -19 55 -34 62 -35 6 0 19 -2
29 -4 30 -6 56 29 52 67 -7 48 -30 61 -108 61 -13 0 -16 4 -12 16 15 38 13 54
-11 78 -25 24 -29 25 -106 18 -76 -6 -80 -5 -73 12 17 42 16 52 -4 63 -36 19
-122 -1 -223 -52 -32 -15 -58 -26 -58 -23 0 9 -95 -37 -127 -61 -18 -14 -45
-45 -59 -70 l-27 -46 -11 33 c-14 43 -58 53 -76 18 -10 -18 -8 -26 8 -49 20
-27 20 -27 1 -43 -29 -25 -23 -45 23 -88 28 -26 37 -39 27 -39 -28 0 -29 -27
-3 -54 27 -27 144 -76 199 -83 20 -3 36 1 41 8 4 7 3 10 -3 6 -16 -10 -88 13
-116 37 -31 27 -52 72 -62 134 -10 61 37 156 95 194 116 75 278 58 373 -38
133 -134 137 -365 9 -522 -55 -69 -59 -72 -143 -116 -259 -138 -579 -53 -747
198 -94 141 -141 305 -137 476 6 219 76 382 235 546 129 132 384 269 560 299
25 5 54 10 65 12 11 2 76 6 145 8 144 5 263 -14 420 -66 193 -63 316 -145 537
-357 7 -8 20 -27 28 -43 9 -16 18 -29 21 -29 10 0 -38 75 -81 127 -173 211
-422 366 -663 413 -69 14 -81 26 -27 28 52 2 158 55 214 107 87 81 118 179 97
301 -7 40 -6 42 28 64 41 25 88 88 104 140 34 107 23 212 -33 304 -26 43 -30
56 -17 52 93 -28 243 -35 342 -16 176 33 329 113 456 237 263 254 353 614 243
967 -91 294 -252 506 -528 692 l-31 20 68 13 c101 20 150 39 222 86 271 176
388 513 265 762 -59 120 -163 211 -290 255 l-50 17 40 1 c56 2 106 22 128 53
19 25 19 27 3 52 -9 14 -27 30 -39 34 -24 9 -66 -2 -82 -22 -16 -19 -50 -43
-41 -30 9 16 -37 63 -62 63 -26 0 -62 -30 -96 -79 -31 -44 -56 -53 -56 -21 0
26 -24 36 -55 22 -32 -15 -66 -70 -110 -179 -75 -180 -80 -205 -60 -290 l12
-52 -28 14 c-36 19 -55 19 -63 -1 -17 -43 5 -74 52 -74 15 0 19 -5 15 -20 -10
-37 16 -53 74 -47 49 5 52 4 43 -13 -14 -26 11 -43 54 -37 49 7 171 65 198 95
l23 25 -45 -26 c-59 -34 -92 -39 -142 -21 -119 42 -176 150 -141 269 23 77 70
135 151 182 59 35 166 41 240 14 52 -19 135 -76 179 -123 31 -33 83 -138 83
-169 0 -14 5 -40 11 -58 21 -61 -19 -210 -86 -316 -80 -125 -229 -229 -365
-254 -70 -12 -233 -5 -295 13 -326 97 -552 355 -594 675 -8 63 -6 204 3 250
37 173 78 287 147 409 118 206 281 355 516 471 182 90 320 120 550 118 203 -3
131 20 -88 27 -238 8 -488 -64 -683 -196 l-60 -41 38 52 c79 108 102 226 65
342 -24 76 -59 124 -123 166 -33 22 -42 33 -35 44 12 19 11 101 -2 154 -14 55
-89 150 -153 192 -27 19 -73 38 -106 45 -47 9 -57 15 -48 25 6 7 15 13 20 13
34 0 179 134 234 216 105 159 155 322 154 506 0 95 -2 116 -19 203 -53 270
-254 521 -526 658 -72 36 -239 93 -302 103 -19 3 -45 8 -57 10 -87 20 -401 6
-489 -22 -15 -5 -10 8 21 52 57 85 78 130 96 211 39 174 3 385 -88 525 -46 70
-51 75 -118 131 -111 94 -286 129 -438 86 -39 -11 -82 -27 -96 -35 -22 -15
-21 -12 10 40 25 41 33 66 30 88 -4 37 -18 48 -60 48 -43 0 -67 -30 -68 -84
-1 -38 -3 -43 -18 -35 -28 15 -57 10 -79 -12 -20 -20 -21 -28 -15 -107 l7 -85
-24 16 c-21 14 -27 14 -43 2 -31 -22 -23 -97 24 -206 22 -52 43 -105 47 -119
19 -62 97 -150 146 -165 22 -7 21 -8 -12 -24 -28 -13 -34 -22 -34 -46 0 -26 4
-30 29 -33 19 -2 36 4 53 20 13 13 23 17 21 10 -2 -8 7 -21 19 -29 22 -15 25
-13 65 26 34 35 43 40 50 27 24 -43 68 3 108 112 28 77 40 145 23 128 -5 -4
-8 -11 -8 -14 -5 -90 -93 -165 -191 -165 -51 0 -126 37 -164 79 -96 109 -73
312 46 410 77 62 125 78 244 79 100 0 109 -2 174 -34 279 -137 353 -538 150
-807 -80 -105 -200 -186 -355 -238 -134 -44 -268 -51 -414 -21 -209 44 -391
170 -518 363 -86 128 -166 312 -183 417 -3 21 -8 47 -11 59 -11 48 -10 276 2
346 51 292 157 499 358 701 41 41 85 82 98 92 l24 18 -25 -12 c-68 -33 -248
-205 -322 -310 -86 -120 -165 -296 -189 -417 -13 -70 -24 -86 -27 -40 -9 122
-107 256 -222 305 -42 18 -136 24 -187 12 -30 -6 -40 -5 -47 8 -20 35 -79 92
-114 109 -105 51 -243 44 -351 -18 -46 -27 -53 -29 -47 -12 22 57 38 276 22
302 -2 4 -7 27 -11 52 -4 24 -11 52 -16 62 -5 10 -7 18 -4 18 5 0 -24 77 -53
140 -58 127 -212 291 -348 372 -158 93 -284 129 -469 134 -222 6 -429 -58
-640 -197 -98 -65 -264 -229 -330 -327 l-49 -72 -21 87 c-79 330 -414 559
-737 503z m1927 -114 c281 -59 505 -265 605 -556 29 -84 37 -268 15 -350 -57
-216 -239 -386 -451 -421 -166 -27 -332 47 -423 189 -66 104 -75 214 -26 315
34 68 78 110 153 145 73 33 155 27 216 -15 46 -31 96 -118 96 -165 0 -37 -23
-91 -49 -117 -12 -12 -17 -21 -13 -21 28 0 95 114 120 203 12 45 -2 80 -28 72
-19 -6 -20 -2 -18 45 2 41 -1 55 -17 66 -10 8 -27 12 -37 8 -15 -4 -18 0 -18
25 0 45 -44 66 -74 35 -14 -13 -14 -19 -1 -50 l14 -34 -27 7 c-59 17 -165 8
-222 -20 -30 -14 -90 -40 -133 -58 -92 -37 -149 -85 -140 -117 3 -12 9 -23 14
-23 5 -1 15 -2 22 -3 17 -3 9 -28 -15 -45 -62 -43 -88 -74 -88 -104 0 -32 24
-67 47 -67 18 0 17 -5 -12 -36 -48 -51 -45 -94 8 -124 20 -11 31 -12 44 -4 22
13 50 68 57 112 5 37 16 55 16 28 0 -35 76 -161 127 -212 110 -108 283 -165
423 -139 116 21 240 81 337 162 l51 43 -5 -55 c-12 -122 53 -295 148 -399 l52
-57 -54 21 c-104 42 -315 112 -454 151 -193 55 -340 88 -595 135 -27 5 -104
17 -130 20 -14 2 -43 5 -65 8 -22 3 -62 8 -90 11 -27 3 -66 8 -85 10 -162 20
-722 28 -935 13 l-100 -6 69 34 c126 64 214 135 301 244 111 139 174 277 190
420 18 144 210 375 435 521 112 73 300 139 440 156 25 3 47 8 50 10 6 6 215
-3 255 -11z m-3170 -901 c132 -63 219 -208 216 -362 -1 -63 -31 -176 -58 -221
l-20 -33 -13 47 c-11 40 -19 49 -54 65 -36 16 -44 16 -74 3 -19 -8 -36 -14
-37 -14 -2 0 -7 -13 -13 -28 -15 -45 9 -92 47 -92 28 0 61 22 61 40 0 16 -31
39 -45 34 -22 -9 -18 -23 5 -17 21 6 25 -3 11 -26 -12 -18 -48 -5 -56 20 -8
23 15 54 45 62 30 8 78 -22 89 -55 39 -112 -154 -269 -364 -296 -98 -13 -154
9 -176 67 -13 32 6 88 32 96 49 16 89 -20 67 -59 -7 -13 -13 -14 -30 -5 -21
11 -21 12 -3 25 16 12 16 14 3 14 -22 0 -31 -15 -23 -39 14 -46 85 -20 85 30
0 90 -135 91 -159 2 -10 -37 4 -93 28 -107 27 -17 7 -23 -33 -11 -128 39 -250
134 -302 237 -36 70 -44 179 -19 264 36 125 138 215 249 220 82 4 89 0 82 -52
-10 -82 39 -181 110 -223 31 -18 34 -24 23 -37 -34 -41 -122 -59 -169 -34 -11
6 -26 24 -35 39 -13 26 -13 30 0 41 8 7 15 21 15 32 0 17 -3 18 -15 8 -24 -20
-19 13 5 35 24 22 73 13 68 -12 -2 -9 -9 -18 -16 -19 -7 -1 -8 0 -2 3 12 5 4
23 -11 23 -15 0 -10 -30 7 -37 23 -8 38 12 30 41 -5 22 -12 26 -44 26 -43 0
-88 -21 -84 -39 1 -7 -5 -19 -14 -26 -10 -7 -15 -19 -11 -28 3 -9 2 -19 -3
-22 -12 -8 -12 -16 0 -35 7 -12 12 -12 29 4 17 15 21 16 21 4 0 -25 53 -66 98
-76 58 -13 108 1 152 44 28 26 44 34 74 34 41 0 69 12 104 44 44 39 65 123 43
165 -8 14 -6 17 11 17 27 -1 35 22 11 31 -10 4 -23 13 -29 22 -7 9 -18 12 -29
7 -11 -4 -22 -2 -26 5 -10 17 -52 4 -81 -26 -27 -27 -28 -69 -2 -79 18 -7 45
21 38 39 -6 15 -34 9 -34 -7 0 -6 7 -7 16 -4 8 3 12 2 9 -4 -3 -6 -13 -10 -21
-10 -11 0 -14 8 -12 28 3 24 8 27 42 30 33 3 38 1 28 -11 -14 -16 -6 -27 18
-27 20 0 47 -29 44 -47 -1 -7 -2 -23 -3 -36 -2 -49 -92 -115 -136 -100 -6 2
-9 30 -8 71 4 84 -22 141 -89 191 -45 34 -46 36 -33 61 57 109 233 150 370 85z
m4235 -65 c31 -8 60 -27 94 -61 l49 -49 -29 -22 c-53 -42 -73 -72 -87 -135
-10 -43 -12 -75 -6 -100 12 -54 12 -53 -24 -53 -39 0 -102 40 -121 78 -7 15
-11 40 -9 57 5 35 4 34 33 40 34 6 48 24 30 35 -24 15 11 23 44 10 20 -7 27
-16 24 -32 -2 -12 -10 -24 -18 -26 -12 -4 -13 -3 -3 10 16 18 5 32 -13 17 -17
-14 -6 -39 17 -39 21 0 42 32 34 52 -8 19 -71 58 -95 58 -13 0 -19 -4 -14 -11
5 -8 -1 -10 -20 -7 -19 4 -29 0 -37 -13 -5 -11 -16 -19 -24 -19 -8 0 -15 -6
-15 -13 0 -22 11 -27 32 -16 17 9 18 8 11 -8 -18 -35 -14 -87 9 -127 29 -50
79 -80 138 -82 42 -1 100 -26 100 -43 0 -16 74 -33 116 -26 48 7 108 51 119
86 7 20 7 20 20 2 11 -14 16 -16 26 -5 10 9 10 15 2 23 -6 6 -9 18 -6 26 4 9
-4 23 -18 34 -17 13 -19 19 -9 19 11 1 8 6 -9 20 -33 28 -106 28 -122 -1 -9
-17 -8 -25 4 -37 18 -17 47 -10 47 13 0 18 -16 20 -26 3 -5 -7 -3 -8 6 -3 9 5
11 4 6 -4 -6 -9 -11 -9 -22 0 -13 11 -13 14 0 27 19 19 57 9 74 -19 12 -19 11
-20 -7 -14 -26 8 -26 -2 -2 -39 24 -36 13 -59 -41 -87 -49 -25 -102 -18 -140
18 l-28 27 29 12 c34 14 73 69 95 131 14 40 14 57 0 125 -5 24 -2 28 28 36
137 38 303 -89 334 -255 18 -95 4 -169 -48 -262 -51 -89 -145 -164 -253 -201
l-54 -19 20 32 c45 75 9 159 -70 161 -52 1 -73 -22 -69 -74 2 -28 9 -37 31
-44 37 -13 65 11 48 43 -7 11 -17 21 -24 20 -9 0 -9 -2 1 -6 16 -6 16 -43 -1
-43 -34 0 -47 41 -22 67 34 33 108 -14 99 -64 -9 -52 -15 -62 -48 -83 -37 -22
-137 -27 -214 -10 -71 17 -193 82 -243 131 -53 51 -68 94 -49 140 30 71 130
70 130 -2 0 -35 -35 -50 -55 -22 -17 22 2 38 25 20 9 -7 9 -4 -2 8 -17 18 -19
18 -34 3 -39 -39 22 -86 71 -54 31 20 34 74 6 100 -68 62 -170 14 -171 -81 -1
-28 -1 -28 -24 11 -14 21 -34 69 -46 105 -54 170 -21 324 91 425 107 96 201
121 329 86z m-5715 -51 c85 -15 228 -74 307 -126 161 -106 255 -271 263 -461
9 -237 -119 -442 -314 -502 -245 -76 -489 79 -475 302 4 63 6 72 26 118 46
105 173 157 276 115 62 -27 112 -86 112 -135 0 -12 4 -19 9 -16 18 11 -30 161
-69 215 -22 32 -60 42 -60 16 0 -23 -16 -18 -34 10 -35 54 -88 67 -101 25 -6
-18 -7 -18 -26 1 -23 23 -52 25 -73 3 -26 -25 -18 -42 28 -66 l30 -16 -40 -20
c-46 -23 -83 -68 -113 -133 -96 -214 -120 -309 -86 -343 16 -15 19 -15 41 -2
29 20 35 9 27 -45 -11 -71 -7 -108 12 -129 20 -22 64 -27 83 -8 9 9 12 4 12
-26 0 -38 14 -75 34 -88 17 -12 71 -9 84 4 27 27 6 104 -41 156 l-21 23 54
-25 c177 -81 396 -47 542 84 113 101 193 292 192 458 l-1 43 23 -28 c38 -48
58 -67 104 -99 86 -60 220 -103 320 -105 l55 0 -35 -17 c-19 -9 -87 -41 -150
-71 -429 -203 -897 -515 -1275 -850 -95 -85 -417 -411 -490 -497 -44 -52 -81
-94 -82 -94 -1 0 7 21 17 46 38 89 59 219 55 344 -6 150 -9 172 -36 255 -35
109 -63 166 -116 236 -47 62 -61 99 -90 239 -18 87 -18 242 2 389 18 138 84
294 192 458 189 284 500 421 828 362z m1915 -200 c143 -103 341 -185 492 -205
50 -7 51 -8 23 -15 -16 -5 -45 -11 -64 -14 -33 -5 -154 -31 -196 -41 -11 -3
-31 -7 -45 -10 -99 -20 -462 -127 -575 -170 -12 -5 1 14 30 44 61 64 120 160
141 227 36 118 25 290 -23 365 -9 14 17 -8 58 -48 41 -40 112 -100 159 -133z
m-780 113 c44 -44 66 -104 56 -156 l-7 -36 -29 15 c-57 30 -97 118 -83 187 7
37 18 35 63 -10z m4753 -54 c8 -34 -7 -109 -27 -144 -22 -36 -71 -70 -81 -54
-10 17 -8 85 4 123 11 33 71 97 90 97 5 0 11 -10 14 -22z m-2123 -352 c47 -4
101 -9 120 -11 19 -2 64 -7 100 -10 88 -8 240 -29 325 -45 28 -5 64 -12 80
-15 67 -12 94 -17 180 -36 220 -48 635 -174 760 -229 11 -5 63 -27 115 -48
483 -199 940 -471 1353 -805 323 -262 651 -603 898 -932 414 -550 686 -1095
889 -1780 25 -84 72 -274 94 -385 27 -133 30 -149 45 -250 17 -115 27 -196 46
-375 23 -217 23 -688 0 -910 -2 -22 -7 -69 -10 -105 -69 -706 -308 -1455 -667
-2088 -96 -169 -267 -434 -340 -527 -4 -5 -42 -55 -84 -110 -279 -364 -647
-731 -1013 -1008 -465 -354 -995 -635 -1541 -818 -181 -60 -496 -148 -588
-164 -18 -3 -63 -12 -100 -19 -37 -8 -87 -17 -112 -21 -25 -3 -52 -8 -60 -10
-8 -2 -35 -7 -60 -10 -25 -3 -56 -8 -70 -10 -14 -2 -50 -6 -80 -10 -30 -3 -71
-8 -90 -10 -139 -16 -335 -26 -535 -27 -169 0 -419 8 -475 17 -14 2 -59 7
-100 10 -198 17 -547 79 -770 136 -1149 296 -2153 946 -2898 1878 -97 121
-108 137 -248 341 -327 478 -575 1018 -734 1598 -22 81 -42 156 -45 167 -37
178 -60 296 -71 365 -2 19 -7 46 -9 60 -3 14 -7 41 -10 60 -2 19 -6 51 -9 70
-29 222 -40 402 -40 685 0 121 3 276 7 345 8 121 10 143 22 240 2 25 7 68 10
95 5 45 43 288 50 325 2 8 11 51 20 95 133 649 414 1318 788 1880 406 609 927
1127 1537 1528 646 424 1317 683 2125 821 17 3 55 8 85 11 30 4 62 8 70 10 8
2 47 7 85 10 39 4 81 8 95 11 14 2 83 6 155 10 71 3 131 7 133 9 5 5 489 -3
572 -9z m2577 -113 c0 -248 75 -496 207 -683 18 -25 35 -50 39 -57 4 -6 -50
27 -120 75 -168 114 -342 216 -543 320 -91 47 -166 86 -168 88 -2 1 23 1 55
-1 162 -7 288 41 414 158 47 44 109 143 109 175 0 6 1 12 3 12 2 0 4 -39 4
-87z m2108 -848 c17 -3 50 -11 75 -16 171 -37 403 -169 535 -304 108 -110 192
-273 213 -415 4 -25 6 -99 6 -165 -2 -109 -5 -129 -37 -222 -55 -162 -135
-278 -245 -359 -193 -142 -478 -146 -659 -9 -95 71 -136 130 -163 234 -37 141
-2 279 94 376 124 124 370 99 435 -45 30 -65 34 -105 16 -165 -17 -59 -67
-112 -116 -122 -16 -3 -29 -9 -29 -13 0 -14 83 10 156 45 77 37 101 69 62 84
-20 7 -18 10 20 41 46 37 55 72 23 92 -19 12 -19 12 0 36 25 32 24 47 -3 66
-27 19 -55 6 -64 -29 -8 -34 -18 -31 -34 10 -17 42 -85 98 -149 121 -25 9 -68
27 -96 39 -123 56 -210 70 -236 39 -10 -12 -10 -20 -1 -35 19 -30 15 -41 -15
-35 -80 15 -106 15 -139 0 -22 -11 -34 -24 -35 -38 -2 -34 2 -50 14 -58 7 -4
-9 -8 -34 -8 -81 0 -127 -62 -82 -112 29 -32 99 -16 154 35 21 20 22 20 15 2
-67 -160 -74 -258 -31 -410 55 -193 279 -343 538 -360 21 -1 40 -4 42 -7 3 -3
-13 -19 -36 -38 -89 -71 -166 -244 -172 -384 -1 -31 -4 -56 -7 -56 -3 1 -25
45 -50 98 -105 229 -291 561 -416 740 -24 35 -44 65 -44 67 0 3 -6 13 -14 22
-8 10 -49 65 -92 123 -212 289 -508 614 -758 835 -44 39 -96 85 -115 103 -36
33 -36 33 -6 19 40 -20 128 -44 190 -54 104 -16 343 -5 385 17 10 5 29 10 42
10 13 0 28 4 34 8 5 4 27 14 49 21 46 16 138 72 177 108 23 22 123 53 248 76
35 6 319 0 355 -8z m-9653 -1347 c-118 -177 -234 -373 -327 -554 -42 -82 -78
-150 -79 -152 -2 -1 -2 28 -1 65 7 221 -139 447 -325 504 -16 5 9 8 70 9 52 1
106 3 120 5 14 3 41 7 60 10 114 17 195 40 302 85 89 38 225 118 248 145 35
42 12 2 -68 -117z m-756 -186 c59 -17 153 -81 197 -134 20 -26 37 -49 37 -52
0 -4 10 -23 23 -44 13 -20 28 -56 34 -78 l10 -42 -35 24 c-57 39 -120 25 -147
-32 -36 -75 39 -150 97 -97 34 31 11 82 -32 68 -22 -7 -26 -20 -8 -31 6 -4 8
-3 4 4 -9 15 7 23 24 12 11 -7 12 -14 4 -27 -16 -25 -31 -26 -53 -4 -28 28
-26 47 5 78 21 21 32 24 62 19 20 -3 47 -17 61 -31 25 -24 26 -31 26 -134 l-1
-109 -47 -94 c-68 -135 -126 -192 -194 -190 -77 3 -123 102 -60 129 46 19 87
-18 50 -45 -16 -11 -19 -10 -23 10 -5 20 -7 20 -13 6 -3 -10 0 -24 10 -33 35
-35 81 37 49 77 -31 41 -106 21 -125 -32 -22 -65 32 -134 107 -134 l23 0 -23
-18 c-13 -10 -54 -30 -93 -45 -61 -24 -84 -28 -175 -28 -92 0 -112 3 -160 26
-73 34 -116 72 -161 142 -85 131 -66 306 41 386 l28 20 50 -48 c40 -39 61 -52
105 -61 49 -11 94 -11 137 1 25 7 18 -73 -9 -107 -50 -64 -137 -75 -147 -19
-1 6 -5 18 -9 27 -4 11 0 20 14 28 27 14 27 35 -1 55 -22 15 -24 14 -50 -15
-33 -35 -46 -79 -28 -90 6 -4 10 -18 8 -31 -2 -18 2 -24 14 -23 10 1 15 -2 12
-8 -8 -13 15 -38 31 -32 7 3 11 14 8 25 -5 17 -2 18 18 11 59 -22 148 20 178
82 12 25 18 57 17 80 -2 30 3 45 24 70 41 47 49 68 46 118 -3 56 -31 106 -74
128 -24 13 -28 19 -17 24 8 3 15 12 15 21 0 12 -8 15 -37 11 -21 -3 -41 -5
-45 -5 -5 -1 -8 -8 -8 -17 0 -9 -6 -14 -13 -11 -24 9 -39 -10 -44 -57 -6 -50
7 -76 37 -76 16 0 30 18 30 40 0 4 -9 10 -20 13 -22 6 -28 -17 -8 -29 7 -5 8
-3 3 6 -6 9 -4 11 4 5 18 -10 -3 -29 -23 -22 -28 11 -19 54 17 78 17 12 26 16
20 9 -28 -31 2 -43 32 -14 33 34 91 -19 100 -91 4 -30 0 -47 -20 -77 -24 -36
-45 -49 -45 -29 0 19 -54 73 -94 93 -51 26 -98 32 -153 20 -40 -9 -42 -8 -51
17 -15 43 -6 128 19 169 87 146 252 211 415 164z m11035 -194 c30 -15 70 -42
88 -60 43 -41 90 -143 86 -183 -2 -16 -3 -39 -4 -50 -1 -19 -8 -21 -69 -21
-91 -1 -172 -46 -208 -115 -14 -29 -15 -29 -39 -12 -43 33 -54 135 -18 175 30
34 52 41 69 23 20 -20 48 -20 40 0 -8 22 10 18 34 -7 24 -26 24 -29 6 -54 -11
-14 -18 -16 -26 -8 -9 9 -9 14 1 19 8 6 10 4 4 -5 -5 -9 -4 -11 4 -6 9 6 9 11
0 23 -11 13 -14 13 -26 -3 -16 -22 1 -46 30 -42 29 4 41 30 33 70 -8 42 -35
80 -43 60 -4 -10 -9 -8 -20 8 -8 11 -22 20 -31 18 -10 -1 -23 1 -29 5 -7 5
-17 5 -23 2 -16 -10 -12 -32 8 -40 14 -5 11 -9 -16 -20 -23 -10 -39 -27 -52
-57 -34 -75 -23 -138 34 -188 22 -20 29 -36 31 -74 7 -97 88 -165 180 -153 40
6 45 5 45 -13 0 -11 6 -20 14 -20 16 0 46 53 46 81 0 9 5 19 11 21 8 3 7 14
-3 38 -23 54 -63 78 -93 56 -20 -14 -12 -56 10 -56 20 0 29 20 15 33 -10 9
-11 9 -6 0 3 -6 1 -15 -5 -19 -8 -4 -9 -3 -5 4 4 7 2 12 -4 12 -6 0 -8 5 -5
10 3 6 17 10 30 10 18 0 25 -7 30 -31 4 -18 3 -35 -4 -42 -8 -8 -11 -8 -11 1
0 25 -19 11 -25 -19 -20 -90 -164 -34 -181 70 l-7 44 29 -8 c91 -26 207 21
250 100 10 19 21 35 24 35 21 -2 89 -64 110 -100 22 -39 25 -57 25 -145 0 -89
-3 -105 -27 -150 -103 -196 -348 -260 -573 -152 l-50 24 43 8 c82 13 120 102
69 161 -30 34 -83 36 -109 3 -23 -28 -23 -44 2 -69 17 -17 24 -18 41 -10 23
13 22 41 -1 47 -13 4 -13 3 0 -6 13 -10 13 -12 0 -21 -18 -11 -42 14 -34 35
13 34 77 22 89 -15 16 -51 -23 -99 -85 -106 -76 -9 -189 123 -239 279 -45 140
-36 222 30 261 69 41 162 -43 97 -88 -15 -11 -26 -12 -40 -5 -19 10 -25 39 -8
39 18 0 25 -5 22 -15 -2 -5 2 -4 10 3 11 11 10 14 -2 22 -25 16 -40 11 -52
-15 -22 -49 48 -86 95 -51 10 8 20 29 24 49 4 28 0 40 -23 66 -18 19 -41 33
-59 35 -32 4 -99 -25 -109 -46 -3 -7 -3 3 0 22 9 52 60 157 107 217 23 29 44
53 48 53 3 0 19 11 35 25 54 47 119 65 220 62 74 -2 100 -8 145 -29z m-11268
-226 c21 -13 44 -37 52 -52 14 -28 14 -29 -16 -35 -58 -13 -116 3 -159 44 -59
56 -54 70 23 68 45 -1 72 -8 100 -25z m11415 -147 c2 -2 -4 -14 -13 -28 -19
-30 -83 -74 -119 -83 -32 -8 -96 3 -96 17 0 20 67 81 105 94 34 12 110 12 123
0z m-11493 -15 c0 -7 -7 -15 -15 -17 -13 -4 -13 -3 0 7 13 10 13 11 0 7 -8 -2
-14 -10 -12 -16 1 -7 -3 -22 -9 -34 l-12 -21 -9 23 c-6 17 -4 31 6 47 16 24
51 26 51 4z m486 -362 c-96 -251 -230 -723 -242 -850 0 -4 -5 -22 -10 -40 -5
-18 -12 -53 -15 -78 -3 -25 -10 -63 -14 -85 -5 -22 -12 -67 -15 -100 -4 -33
-9 -68 -10 -77 -2 -9 -7 -48 -10 -85 -4 -37 -9 -76 -11 -85 -18 -100 -27 -775
-11 -948 l7 -85 -30 64 c-58 122 -146 227 -280 333 -114 90 -301 168 -406 168
-48 0 -229 116 -318 204 -160 157 -263 333 -318 544 -27 101 -31 135 -32 252
-1 142 2 166 35 269 48 150 149 290 284 392 62 47 200 113 281 134 80 21 215
25 294 9 272 -56 481 -336 441 -591 -14 -88 -50 -160 -115 -225 -76 -76 -151
-111 -246 -116 -63 -3 -84 0 -130 20 -99 44 -167 133 -177 233 -10 95 39 179
126 218 73 32 133 24 190 -27 l24 -21 -18 27 c-28 45 -208 120 -250 105 -12
-5 -15 -14 -11 -31 6 -24 5 -24 -48 -19 -48 5 -55 3 -66 -17 -6 -12 -9 -28 -6
-35 3 -9 -7 -15 -29 -19 -39 -8 -52 -34 -35 -67 12 -21 30 -22 71 -5 15 7 15
2 4 -46 -15 -66 -1 -128 65 -283 61 -142 92 -185 136 -185 16 0 24 7 26 22 5
37 24 31 62 -22 20 -28 47 -56 60 -62 37 -16 75 -2 90 34 13 29 14 30 27 11 8
-11 29 -28 47 -37 31 -16 34 -16 62 0 39 23 47 60 20 89 -23 24 -80 45 -126
45 -24 1 -20 4 23 19 57 21 146 77 187 118 37 36 111 151 125 192 6 19 14 75
17 125 5 76 3 105 -16 173 -25 92 -94 220 -153 283 l-38 40 68 -1 c37 0 79 2
93 4 102 17 219 74 295 142 28 24 51 44 52 45 1 0 -11 -33 -26 -72z m10531
-196 c89 -61 169 -85 293 -86 98 -1 117 2 170 25 l60 26 -81 -83 c-165 -169
-281 -388 -325 -614 -13 -63 -13 -64 -21 -30 -4 19 -10 51 -13 70 -25 158
-122 523 -200 750 l-25 75 47 -50 c27 -28 69 -65 95 -83z m178 -1275 c0 -33
103 -193 172 -268 60 -64 179 -151 272 -198 89 -46 153 -65 248 -75 79 -9 260
-131 369 -248 170 -185 244 -335 300 -613 52 -254 -32 -533 -216 -720 -138
-140 -362 -239 -540 -239 -249 -1 -481 168 -555 402 -15 48 -19 85 -17 156 3
82 7 101 35 159 39 79 131 169 211 205 177 81 390 -29 425 -220 14 -76 -34
-178 -102 -216 -75 -42 -160 -38 -210 9 -12 11 -22 16 -22 11 0 -17 36 -41
111 -76 83 -38 125 -48 152 -34 14 7 15 13 6 29 -10 20 -9 21 32 16 24 -3 53
-1 65 3 25 10 37 43 21 59 -8 8 -3 11 18 11 37 0 50 9 59 36 12 39 -29 54 -86
30 -15 -7 -15 -4 -2 35 22 64 7 158 -40 244 -9 17 -25 55 -36 87 -25 67 -71
140 -97 149 -25 9 -53 -8 -53 -31 0 -33 -18 -23 -56 30 -40 56 -60 70 -98 70
-28 0 -70 -35 -61 -50 12 -20 -11 -9 -34 15 -30 32 -66 41 -97 24 -28 -14 -42
-54 -27 -78 13 -22 78 -53 114 -55 41 -1 36 -9 -20 -29 -106 -37 -232 -161
-283 -277 -27 -61 -30 -81 -31 -185 0 -77 5 -103 33 -180 30 -83 84 -178 144
-250 l25 -30 -87 -1 c-130 -2 -265 -57 -375 -154 l-37 -32 36 99 c115 313 208
659 259 963 3 19 8 42 10 50 2 8 7 40 10 70 3 30 8 62 10 70 5 16 11 68 20
175 4 39 8 82 10 96 10 85 18 293 18 479 0 209 -10 467 -20 483 -2 4 1 7 6 7
6 0 11 -6 11 -13z m-10959 -1534 c45 -226 123 -519 192 -715 l33 -97 -56 58
c-60 62 -120 102 -201 132 -101 39 -243 42 -330 10 -30 -12 -56 -21 -59 -21
-3 0 26 33 65 73 161 168 278 390 316 599 7 38 14 66 17 64 2 -3 13 -49 23
-103z m-67 -659 c28 -8 71 -25 96 -38 37 -20 40 -24 20 -24 -60 0 -123 -56
-115 -100 2 -10 4 -23 4 -30 2 -23 49 -62 76 -62 34 0 77 43 69 67 -8 22 -33
43 -51 43 -21 0 -35 -36 -19 -50 12 -9 13 -7 9 9 -7 26 22 29 31 5 15 -40 -40
-58 -73 -25 -17 17 -18 26 -11 53 22 75 98 91 170 34 57 -45 125 -145 149
-220 19 -56 36 -144 34 -173 0 -7 -1 -24 -2 -37 0 -13 -14 -38 -30 -55 -51
-54 -141 -36 -141 29 0 50 61 70 68 22 4 -24 -22 -32 -31 -9 -4 7 -6 6 -6 -4
-1 -26 27 -31 49 -9 25 25 25 32 0 55 -27 25 -50 27 -78 9 -47 -31 -45 -95 5
-134 34 -27 83 -25 125 4 l35 24 -7 -32 c-12 -51 -58 -145 -92 -189 -117 -150
-270 -199 -440 -141 -103 35 -198 158 -197 254 1 71 5 75 84 75 63 0 75 4 121
34 28 18 59 49 69 67 10 19 21 34 25 34 4 0 17 -11 29 -24 46 -48 37 -158 -13
-186 -19 -10 -29 -9 -54 4 -40 21 -45 20 -32 -4 9 -17 8 -19 -7 -13 -40 13
-58 68 -27 80 20 7 41 -12 23 -22 -8 -6 -10 -4 -4 5 5 9 4 11 -3 6 -17 -10
-15 -26 3 -26 24 0 31 31 10 46 -13 9 -23 10 -36 3 -35 -18 -17 -129 21 -129
9 0 21 -5 28 -12 16 -16 79 -20 88 -6 4 6 -1 15 -11 20 -15 9 -13 12 15 29 37
23 62 76 62 136 0 47 -13 73 -56 113 -18 18 -26 35 -26 62 0 64 -33 119 -85
143 -51 22 -61 24 -99 15 -32 -7 -36 -6 -36 11 0 12 -7 19 -20 19 -13 0 -20
-7 -20 -20 0 -12 -7 -20 -16 -20 -12 0 -14 -7 -9 -31 5 -21 4 -29 -3 -25 -16
10 -20 -16 -5 -44 19 -39 48 -62 75 -58 25 3 37 33 20 50 -15 15 -43 2 -36
-17 3 -8 10 -12 15 -9 5 3 7 10 4 15 -4 5 -1 9 4 9 17 0 13 -30 -4 -37 -24 -9
-53 23 -47 52 4 24 22 36 22 14 0 -5 5 -7 10 -4 6 3 10 17 10 31 0 54 94 57
144 5 27 -28 47 -84 39 -108 -3 -8 -12 -9 -33 -1 -70 24 -177 -18 -231 -92
l-35 -47 -39 26 c-21 14 -51 49 -67 78 -25 45 -30 64 -31 135 -2 71 2 91 24
138 85 183 287 266 493 204z m11156 -159 c137 -21 264 -165 277 -313 8 -95
-15 -161 -74 -218 l-45 -42 -41 42 c-23 24 -51 48 -62 54 -20 10 -20 11 1 34
35 40 54 76 48 92 -3 9 -10 16 -14 16 -4 0 -5 11 -2 25 3 18 0 25 -11 25 -8 0
-17 9 -20 20 -3 11 -13 20 -22 20 -13 0 -16 -6 -11 -25 6 -23 5 -24 -24 -13
-45 15 -93 2 -140 -40 -39 -35 -42 -41 -47 -102 -4 -48 -11 -71 -28 -90 -33
-36 -44 -62 -46 -106 -3 -53 27 -112 69 -137 20 -12 30 -23 24 -25 -17 -5 -15
-42 2 -42 8 0 18 5 21 10 4 6 10 8 15 5 13 -8 40 6 40 20 0 8 8 11 19 8 16 -4
22 3 30 34 14 51 14 63 -5 84 -19 21 -54 14 -54 -12 0 -21 16 -33 32 -23 7 5
5 11 -7 21 -18 12 -18 13 2 13 41 0 36 -57 -6 -80 -17 -8 -18 -7 -13 12 5 22
5 22 -21 5 -37 -24 -55 -21 -88 14 -39 41 -40 99 -3 153 l26 38 18 -30 c19
-31 64 -68 113 -92 31 -15 85 -18 138 -7 33 7 37 5 43 -15 3 -13 6 -46 6 -73
0 -65 -26 -115 -99 -185 -198 -194 -527 -75 -632 228 l-18 53 30 -25 c75 -63
182 -13 170 79 -6 49 -70 75 -107 44 -19 -15 -18 -65 1 -73 24 -9 45 4 44 28
0 20 -1 20 -10 -3 -7 -19 -12 -21 -24 -11 -11 9 -12 17 -4 31 11 22 42 25 56
7 24 -31 23 -50 -6 -78 -37 -37 -84 -33 -123 11 -33 38 -42 97 -28 181 18 117
61 205 139 290 37 39 54 51 86 55 35 4 45 1 73 -25 51 -48 35 -117 -27 -110
-20 2 -26 9 -26 27 0 16 6 25 18 27 14 2 18 -2 14 -17 -3 -10 -1 -17 4 -13 17
10 9 43 -13 50 -28 9 -59 -26 -50 -58 13 -53 78 -64 117 -22 53 57 15 145 -68
161 l-42 9 49 27 c27 15 55 27 63 27 8 0 23 5 34 11 45 24 139 29 239 14z m9
-309 c5 -3 11 -19 14 -36 7 -33 23 -40 30 -12 3 12 6 9 12 -12 10 -35 -3 -60
-34 -64 -23 -4 -26 5 -10 28 9 12 10 11 4 -5 -5 -16 -4 -18 6 -7 19 18 -4 40
-25 23 -20 -17 -8 -51 17 -51 13 0 17 -4 12 -9 -6 -6 -28 -6 -54 -1 -25 4 -56
6 -70 3 -59 -13 -66 -10 -65 24 3 80 106 154 163 119z m-11283 -16 c39 0 -13
-78 -73 -109 -32 -16 -133 -15 -133 3 0 20 85 94 117 102 15 3 33 7 38 9 6 2
16 2 23 -1 8 -2 20 -4 28 -4z m834 -575 c183 -312 409 -622 655 -900 91 -103
339 -352 435 -436 41 -36 91 -80 110 -97 l35 -31 -70 24 c-101 35 -176 47
-289 47 -87 1 -205 -12 -227 -23 -9 -4 -29 -11 -45 -13 -75 -13 -225 -91 -281
-144 -13 -13 -56 -29 -110 -42 -48 -11 -99 -23 -113 -27 -52 -12 -248 -11
-340 3 -124 19 -217 47 -315 96 -220 110 -366 239 -448 396 -110 210 -130 425
-58 636 44 128 94 211 180 296 89 89 169 132 293 158 177 38 364 -14 483 -133
84 -84 125 -181 125 -295 0 -277 -250 -438 -474 -306 -85 49 -120 175 -77 269
27 59 67 91 136 108 l30 7 -27 1 c-32 1 -101 -21 -175 -56 -59 -27 -77 -58
-47 -80 17 -13 17 -14 -6 -30 -61 -43 -69 -70 -32 -100 14 -11 14 -15 -1 -31
-21 -23 -22 -56 -2 -72 23 -19 49 -8 66 29 l16 33 12 -30 c19 -47 70 -93 136
-122 226 -104 298 -124 340 -96 24 16 25 18 10 47 l-16 30 84 -7 c78 -6 86 -5
106 15 22 22 28 70 10 88 -8 8 0 11 29 10 22 0 51 7 66 17 37 23 34 83 -4 105
-23 12 -31 12 -70 -7 -25 -12 -55 -28 -67 -37 l-21 -16 19 39 c11 21 26 72 35
113 38 179 -26 370 -160 481 -98 81 -273 144 -406 147 l-45 1 42 35 c73 62
151 194 168 287 3 18 8 42 10 53 2 11 4 43 4 70 l1 50 104 -210 c57 -115 141
-273 186 -350z m9795 322 c0 -69 6 -109 23 -159 43 -124 138 -240 238 -289 35
-17 64 -33 64 -34 0 -2 -39 -3 -87 -3 -179 0 -369 -45 -528 -125 -59 -29 -165
-94 -175 -106 -3 -3 -12 -12 -21 -18 -8 -7 33 60 92 150 122 186 241 390 325
560 32 64 61 117 64 117 3 0 5 -42 5 -93z m665 63 c21 -11 48 -33 59 -49 20
-28 21 -30 4 -39 -63 -34 -213 35 -213 97 0 19 107 13 150 -9z m-1444 -1192
c-23 -53 -40 -116 -51 -193 -9 -59 -6 -226 4 -262 5 -17 7 -34 5 -36 -10 -10
31 -146 66 -222 20 -44 55 -103 78 -132 100 -125 128 -455 62 -718 -37 -145
-151 -350 -263 -471 -172 -186 -368 -268 -617 -259 -279 9 -534 160 -636 375
-123 259 -28 585 204 704 104 53 264 51 372 -4 167 -85 214 -331 88 -461 -91
-93 -258 -82 -323 21 -14 22 -27 40 -30 40 -5 0 40 -121 57 -154 29 -56 62
-71 74 -34 6 20 9 19 41 -20 37 -45 62 -52 88 -26 14 15 18 15 42 -1 37 -24
76 -6 71 33 -2 21 -11 30 -38 38 l-34 11 41 21 c53 27 96 81 123 151 12 31 32
79 45 106 45 99 62 184 44 218 -10 18 -21 19 -62 2 -17 -7 -18 -3 -12 73 7 77
6 81 -18 106 -24 24 -40 26 -79 11 -13 -5 -16 -1 -13 22 4 41 -20 93 -44 94
-62 4 -69 2 -81 -21 -15 -28 3 -83 42 -133 l30 -39 -39 20 c-108 55 -243 67
-370 32 -135 -37 -233 -120 -301 -257 -51 -100 -71 -169 -79 -263 -3 -41 -6
-76 -7 -77 -1 -2 -15 14 -31 35 -78 104 -278 192 -423 186 -39 -1 -27 7 135
86 302 147 541 288 800 471 172 123 274 203 453 359 188 163 516 498 587 600
23 33 23 23 -1 -32z m-7041 -1178 c77 -46 212 -120 300 -164 l160 -81 -86 2
c-51 1 -110 -4 -145 -13 -161 -42 -300 -159 -350 -294 -12 -33 -13 -30 -15 63
-1 53 -2 100 -3 105 -1 4 -6 32 -10 62 -11 73 -11 75 -30 150 -21 83 -80 220
-123 288 -18 29 -33 55 -33 58 0 3 -11 17 -25 32 -47 51 -25 41 98 -41 67 -46
185 -121 262 -167z m501 -285 c108 -21 246 -98 293 -163 55 -78 7 -178 -74
-158 -52 13 -53 91 -2 84 26 -4 30 -34 5 -32 -10 1 -18 -2 -18 -7 0 -14 36
-11 48 4 13 16 -2 53 -25 59 -74 19 -106 -80 -41 -126 68 -48 164 21 149 107
-3 20 21 -8 40 -45 43 -85 57 -148 55 -248 -3 -117 -30 -182 -101 -252 -69
-66 -131 -97 -208 -105 -98 -9 -160 10 -218 67 -27 25 -49 51 -49 56 0 6 11
17 25 24 70 37 116 174 85 254 -6 17 -6 26 0 27 45 5 66 -1 104 -28 34 -24 46
-40 51 -67 10 -48 -1 -76 -29 -76 -13 0 -29 -7 -36 -15 -10 -12 -10 -15 4 -15
9 0 16 -4 16 -10 0 -5 -13 -10 -29 -10 -51 0 -82 52 -35 57 10 2 13 0 7 -3
-18 -8 -16 -24 2 -24 8 0 15 9 15 21 0 29 -50 23 -61 -8 -7 -19 -1 -26 38 -52
51 -34 73 -39 73 -17 0 10 7 12 21 9 13 -4 26 0 33 9 6 8 19 17 28 21 22 8 12
40 -11 34 -13 -3 -15 4 -13 48 7 96 -59 165 -157 165 -42 0 -57 5 -77 25 -36
36 -57 45 -106 45 -55 0 -107 -26 -134 -67 -19 -28 -24 -31 -34 -18 -7 8 -16
12 -21 10 -14 -9 -2 -78 16 -91 9 -7 14 -17 11 -22 -17 -28 94 -54 119 -29 8
9 15 22 15 31 0 21 -34 38 -48 24 -15 -15 -4 -38 15 -31 12 5 12 7 1 14 -10 7
-9 9 5 9 24 0 21 -27 -4 -40 -17 -9 -25 -8 -41 7 -11 10 -24 27 -30 38 -9 16
-8 18 3 8 30 -29 41 -3 12 29 -14 15 -14 22 -4 41 29 54 111 73 170 40 43 -25
45 -39 10 -60 -35 -21 -72 -73 -89 -126 -11 -36 -8 -115 5 -137 16 -26 -107
-40 -162 -19 -48 18 -133 90 -159 136 -51 86 -65 217 -33 303 22 60 82 146
129 185 46 39 141 88 194 101 l30 7 -22 -23 c-46 -49 -37 -125 19 -159 74 -45
159 39 99 99 -15 15 -25 17 -42 11 -30 -11 -32 -55 -3 -58 16 -1 16 -1 3 3
-22 7 -23 18 -4 33 10 8 16 8 23 -1 22 -29 23 -38 4 -57 -17 -17 -25 -19 -51
-10 -51 18 -64 67 -33 120 32 53 106 68 229 44z m4616 -75 c29 -14 58 -72 51
-101 -7 -26 -42 -59 -63 -59 -21 0 -50 25 -50 44 0 18 27 39 40 31 14 -9 13
-32 -2 -38 -10 -4 -10 -6 -1 -6 7 -1 17 8 23 18 7 15 6 23 -6 35 -21 21 -41
20 -61 -4 -26 -30 -25 -55 3 -85 21 -23 30 -26 62 -21 52 10 81 47 78 103 -2
29 -10 51 -26 68 l-23 24 28 -5 c47 -8 148 -55 196 -90 59 -43 122 -124 149
-193 17 -44 20 -68 16 -125 -6 -86 -16 -120 -51 -180 -59 -100 -181 -161 -274
-137 -23 7 -25 11 -22 69 3 86 -33 150 -121 214 l-23 16 21 20 c52 49 157 47
190 -4 17 -26 18 -23 -15 -88 -2 -5 5 -7 17 -4 19 5 20 3 12 -13 -23 -42 -80
-47 -80 -6 0 20 0 20 14 1 14 -18 15 -18 22 0 4 11 2 21 -7 27 -19 12 -54 -28
-39 -46 5 -6 7 -15 3 -18 -12 -13 58 -7 93 8 25 10 34 20 31 30 -4 8 1 19 11
24 19 11 27 77 10 87 -6 4 -17 -1 -25 -11 -10 -15 -13 -16 -13 -3 0 25 -46 64
-91 77 -44 13 -111 7 -132 -12 -53 -51 -81 -67 -116 -67 -90 0 -165 -104 -140
-192 6 -24 5 -28 -12 -28 -14 0 -19 -6 -17 -17 2 -10 9 -18 16 -18 7 0 16 -6
21 -13 5 -8 17 -12 27 -10 11 2 24 -3 30 -10 9 -12 16 -12 45 3 52 27 67 43
62 70 -8 40 -63 44 -63 4 0 -10 7 -19 15 -19 8 0 15 5 15 11 0 5 -4 7 -10 4
-5 -3 -10 -2 -10 3 0 12 26 23 34 15 24 -24 -10 -64 -52 -60 -23 1 -31 17 -9
17 18 1 -24 30 -44 30 -31 0 -38 53 -14 103 20 40 52 64 98 72 l36 7 -4 -56
c-5 -76 18 -139 71 -193 24 -24 50 -43 59 -43 14 0 14 -3 0 -30 -42 -81 -124
-120 -246 -117 -100 2 -156 26 -231 99 -123 119 -147 335 -57 507 19 37 32 52
27 34 -1 -5 2 -25 7 -46 17 -83 136 -104 175 -32 25 47 0 91 -58 101 -17 3
-42 -24 -42 -46 0 -21 37 -37 52 -22 7 7 4 10 -8 9 -10 -1 -20 6 -22 16 -3 13
3 17 22 17 34 0 46 -42 21 -70 -37 -41 -110 -13 -121 46 -13 68 17 116 120
190 54 40 169 86 236 97 43 6 114 0 142 -13z m-3657 -239 c110 -28 216 -53
235 -56 19 -3 42 -8 50 -10 8 -2 31 -6 50 -9 19 -3 73 -12 120 -20 47 -8 110
-17 140 -21 30 -3 62 -8 70 -10 8 -2 49 -7 90 -11 41 -3 89 -8 105 -10 234
-24 925 -22 970 3 5 4 8 4 5 1 -3 -4 -40 -24 -82 -46 -118 -61 -232 -157 -298
-252 -13 -19 -32 -44 -42 -54 -56 -61 -137 -277 -138 -366 -1 -50 -105 -215
-199 -313 -181 -189 -361 -286 -635 -342 -399 -82 -764 105 -919 471 -44 103
-58 162 -62 255 -5 123 17 215 74 314 116 200 346 318 546 280 17 -3 62 -21
102 -40 83 -41 147 -106 190 -193 88 -180 -9 -390 -202 -433 -69 -15 -141 7
-196 62 -72 72 -81 167 -22 249 l25 35 -34 -35 c-38 -40 -98 -173 -98 -218 0
-30 24 -50 35 -32 15 25 23 5 18 -43 -6 -59 9 -83 50 -75 19 4 23 0 22 -16 -4
-38 14 -57 48 -54 26 2 32 8 33 28 1 13 -5 34 -13 46 l-14 22 48 -14 c72 -22
128 -14 238 36 33 15 85 37 116 49 79 31 131 76 127 110 -2 18 -10 27 -26 29
-31 5 -24 21 25 57 79 58 92 118 33 153 -28 17 -28 18 -9 31 11 6 27 28 36 48
13 33 13 38 -5 62 -12 16 -31 27 -50 29 -39 4 -58 -23 -75 -107 l-13 -61 -11
42 c-13 48 -74 147 -120 194 -73 75 -175 128 -268 140 -177 23 -337 -27 -488
-151 l-64 -53 7 37 c22 127 -51 330 -159 437 -31 31 -28 31 202 -47 127 -43
322 -101 432 -128z m3157 94 c-103 -106 -151 -229 -154 -395 -1 -59 5 -88 25
-139 l26 -63 -72 70 c-107 105 -190 165 -320 229 -93 46 -199 83 -277 98 -8 1
-35 6 -60 11 l-45 8 45 7 c25 4 59 10 75 13 17 3 44 9 60 11 17 3 46 10 65 15
19 5 46 11 60 14 129 26 511 136 590 170 19 8 37 15 40 16 3 0 -23 -29 -58
-65z m-4187 -285 c14 -66 -19 -148 -76 -187 -18 -13 -23 -13 -30 -2 -27 43 5
157 56 197 36 29 42 28 50 -8z m4635 -60 c52 -37 89 -144 66 -189 -12 -21 -12
-21 -53 14 -53 45 -81 122 -62 173 10 27 14 27 49 2z"/>
<path d="M6978 11825 c-2 -1 -77 -6 -168 -9 -91 -4 -178 -8 -195 -10 -16 -2
-64 -6 -105 -10 -41 -4 -86 -9 -100 -11 -14 -2 -45 -7 -70 -10 -25 -3 -97 -15
-160 -26 -63 -12 -128 -23 -144 -26 -97 -16 -378 -93 -541 -148 -426 -142
-824 -339 -1180 -583 -171 -118 -260 -186 -455 -350 -107 -91 -428 -419 -530
-542 -524 -633 -864 -1336 -1026 -2125 -2 -11 -6 -31 -9 -45 -7 -35 -11 -58
-19 -113 -4 -27 -9 -59 -12 -70 -2 -12 -9 -60 -14 -107 -6 -47 -12 -98 -15
-115 -27 -195 -28 -822 0 -1005 2 -14 7 -54 10 -90 3 -36 8 -72 10 -80 2 -8 7
-35 10 -60 19 -141 60 -339 105 -505 293 -1096 967 -2058 1900 -2711 398 -279
877 -513 1328 -650 102 -31 347 -95 412 -108 141 -28 261 -48 363 -61 67 -8
138 -17 157 -20 190 -25 756 -26 955 -1 17 2 57 7 90 10 33 4 89 12 125 17 36
6 81 13 100 15 79 10 337 67 471 104 1124 308 2091 1005 2734 1970 140 211
209 327 305 520 219 437 359 867 445 1365 3 17 8 50 11 75 3 25 8 53 10 63 2
10 6 48 10 85 3 36 8 75 10 86 24 127 24 800 0 946 -3 14 -7 54 -11 90 -3 36
-7 76 -9 90 -164 1149 -712 2171 -1576 2941 -208 185 -544 431 -740 541 -25
14 -79 45 -120 69 -111 63 -397 199 -540 257 -118 47 -402 146 -452 156 -13 3
-74 19 -136 35 -157 42 -386 88 -537 107 -22 3 -51 7 -65 10 -14 2 -56 6 -95
10 -38 3 -81 8 -95 10 -14 2 -110 7 -215 10 -104 3 -198 7 -207 8 -9 2 -18 3
-20 1z m412 -110 c19 -2 59 -7 88 -10 143 -14 177 -19 312 -41 153 -25 174
-30 340 -70 810 -196 1596 -635 2180 -1216 129 -129 185 -190 317 -342 123
-142 370 -495 477 -684 65 -115 196 -378 244 -493 119 -279 233 -649 287 -929
15 -76 36 -203 40 -246 3 -27 8 -56 10 -64 2 -8 7 -46 10 -85 3 -38 8 -84 10
-100 22 -164 22 -632 -1 -845 -2 -25 -7 -67 -9 -95 -8 -73 -19 -150 -35 -245
-5 -30 -12 -71 -15 -90 -3 -19 -8 -42 -10 -50 -2 -8 -7 -31 -10 -50 -35 -209
-186 -685 -291 -918 -205 -454 -456 -855 -739 -1182 -97 -112 -133 -150 -279
-295 -511 -508 -1120 -885 -1806 -1116 -269 -90 -670 -184 -875 -205 -22 -2
-56 -6 -75 -8 -160 -21 -308 -29 -540 -29 -199 -1 -373 6 -465 18 -16 2 -52 7
-80 10 -824 94 -1622 412 -2285 912 -110 83 -119 89 -239 193 -549 468 -1004
1090 -1282 1750 -82 196 -192 523 -224 668 -2 9 -16 69 -30 132 -50 214 -85
449 -102 675 -15 198 -8 696 12 850 2 17 7 53 10 80 19 147 25 186 45 290 11
55 22 110 25 123 2 13 6 31 9 40 3 9 7 29 10 43 19 111 125 450 208 664 111
285 291 623 476 895 189 278 336 455 587 705 361 361 753 643 1220 878 138 69
356 167 373 167 4 0 19 6 33 14 33 17 333 116 454 150 116 32 201 51 355 81
122 23 142 27 245 40 28 4 61 9 75 11 31 5 127 14 250 23 99 8 629 5 690 -4z"/>
<path d="M6956 11635 c-44 -15 -93 -59 -108 -95 -63 -153 87 -307 236 -242
132 59 146 246 23 320 -43 27 -104 33 -151 17z"/>
<path d="M6215 11575 c-5 -2 -22 -6 -37 -9 -59 -13 -118 -101 -118 -176 0 -34
32 -100 61 -127 80 -73 220 -52 275 43 46 78 21 189 -53 238 -35 23 -103 39
-128 31z"/>
<path d="M7702 11559 c-56 -28 -92 -88 -92 -153 0 -120 77 -194 191 -183 66 6
107 30 139 81 52 86 21 199 -70 255 -46 27 -112 27 -168 0z"/>
<path d="M5465 11375 c-5 -2 -22 -6 -36 -9 -29 -6 -86 -60 -99 -92 -37 -95 -3
-196 82 -240 39 -20 122 -18 166 5 63 32 94 87 94 166 0 63 -36 121 -92 150
-27 14 -97 26 -115 20z"/>
<path d="M8453 11359 c-73 -36 -110 -125 -88 -212 21 -81 81 -127 168 -127
131 0 203 100 172 237 -7 30 -60 90 -96 109 -40 20 -107 17 -156 -7z"/>
<path d="M6748 11185 c-1 -1 -41 -6 -88 -9 -137 -11 -164 -14 -339 -42 -52 -8
-97 -17 -101 -19 -3 -2 -26 -6 -50 -10 -25 -3 -63 -11 -85 -17 -22 -5 -48 -12
-57 -13 -47 -9 -224 -61 -332 -97 -515 -171 -1005 -451 -1426 -816 -76 -66
-326 -314 -390 -387 -491 -561 -824 -1236 -964 -1958 -24 -124 -41 -231 -50
-322 -3 -27 -8 -75 -11 -105 -15 -144 -20 -463 -10 -630 112 -1806 1387 -3342
3147 -3789 84 -22 171 -42 193 -45 22 -4 72 -13 110 -21 39 -7 95 -16 125 -20
30 -3 66 -8 80 -10 268 -38 692 -40 989 -4 89 10 105 12 176 24 17 2 48 7 70
11 375 58 865 228 1245 432 382 206 674 424 990 741 590 592 981 1326 1140
2140 19 100 23 121 39 236 41 286 48 734 16 995 -2 19 -6 57 -9 84 -8 65 -34
227 -46 279 -5 23 -12 58 -15 77 -3 19 -23 103 -45 185 -285 1090 -1002 2017
-1996 2583 -219 125 -540 263 -789 341 -123 38 -334 94 -400 105 -16 3 -55 10
-85 16 -30 6 -71 13 -90 16 -19 3 -60 9 -90 14 -61 10 -141 19 -270 30 -83 7
-575 12 -582 5z m444 -79 c92 -4 175 -8 185 -10 10 -2 52 -7 93 -11 41 -4 82
-8 90 -10 8 -2 51 -8 95 -15 297 -44 652 -146 948 -272 832 -354 1515 -961
1967 -1748 235 -412 400 -870 479 -1335 11 -66 23 -147 26 -180 3 -33 8 -69
10 -80 9 -45 19 -271 19 -430 0 -181 -11 -376 -28 -500 -22 -160 -27 -193 -58
-340 -244 -1193 -1056 -2251 -2153 -2807 -391 -198 -891 -358 -1265 -403 -19
-2 -51 -7 -70 -10 -136 -20 -276 -28 -495 -29 -184 0 -393 8 -458 19 -12 2
-42 6 -67 9 -93 11 -238 35 -334 56 -54 12 -108 23 -119 26 -125 24 -441 128
-627 206 -1227 516 -2141 1619 -2419 2918 -11 52 -22 111 -26 130 -3 19 -7 46
-10 60 -54 291 -68 812 -29 1130 56 471 178 889 378 1305 67 140 201 384 216
395 4 3 14 19 23 35 8 17 60 93 115 170 502 704 1213 1235 2022 1509 262 88
525 150 765 180 201 25 215 26 380 32 88 4 162 8 164 10 2 2 7 2 10 0 3 -2 81
-7 173 -10z"/>
<path d="M3250 8391 c-12 -47 -12 -178 1 -249 26 -137 132 -237 292 -277 73
-17 262 -23 377 -11 111 12 141 16 174 21 32 6 52 9 126 20 86 13 105 16 160
25 30 5 71 12 90 14 19 3 49 7 65 10 27 4 55 8 160 21 65 8 191 6 216 -3 64
-25 69 -81 15 -196 -33 -71 -310 -541 -324 -549 -4 -3 -34 -8 -67 -11 -112
-12 -230 -37 -325 -68 -82 -26 -101 -37 -142 -79 -41 -42 -48 -55 -48 -88 0
-28 8 -49 26 -70 14 -17 30 -31 35 -31 5 0 29 19 54 43 24 24 84 64 132 89 83
44 250 104 260 94 12 -11 -216 -365 -275 -428 -149 -158 -310 -172 -444 -38
-112 112 -140 251 -83 414 62 180 204 296 361 296 43 0 57 -5 83 -29 17 -16
32 -36 32 -45 3 -36 4 -39 17 -43 23 -8 14 63 -13 96 -35 40 -83 55 -163 48
-167 -15 -326 -159 -382 -347 -68 -224 12 -438 193 -524 55 -25 177 -53 222
-50 126 8 209 33 288 85 97 64 237 243 350 447 42 75 82 145 89 154 7 9 31 19
53 22 72 10 385 19 385 11 0 -5 -27 -65 -61 -134 -79 -163 -94 -203 -113 -292
-14 -67 -15 -179 -2 -235 9 -41 45 -101 76 -127 80 -67 236 -63 318 9 29 25
34 35 25 44 -9 10 -19 8 -46 -9 -19 -11 -50 -21 -69 -21 -73 0 -103 69 -95
215 7 131 54 256 189 503 23 43 23 43 68 37 85 -12 93 -15 77 -34 -30 -35 -85
-149 -102 -211 -23 -84 -24 -194 -1 -237 21 -43 65 -87 107 -109 25 -13 57
-18 120 -19 79 0 91 3 160 37 99 50 192 121 322 247 103 100 107 103 93 65
-22 -63 -19 -194 6 -244 34 -68 137 -124 208 -113 97 15 193 72 292 175 l67
70 -6 -38 c-3 -22 -7 -41 -9 -42 -6 -8 27 -87 44 -105 29 -33 89 -57 140 -57
83 0 138 26 213 100 l68 68 6 -30 c9 -38 58 -94 104 -118 51 -25 127 -32 170
-14 98 41 297 237 476 468 69 90 66 88 105 74 19 -7 36 -13 38 -14 2 -1 -8
-24 -21 -51 -53 -104 -76 -240 -54 -324 14 -59 78 -121 147 -144 156 -52 334
37 593 296 64 65 117 117 117 115 0 -2 -6 -16 -14 -32 -132 -268 -144 -384
-42 -384 23 0 42 13 87 58 31 32 73 83 92 113 96 151 321 407 421 480 67 49
68 34 6 -71 -117 -196 -200 -386 -200 -457 0 -86 56 -134 156 -134 122 0 246
103 450 376 119 159 148 206 133 221 -8 7 -19 10 -25 6 -6 -4 -81 -97 -167
-207 -184 -235 -179 -229 -239 -278 -55 -45 -85 -46 -80 -4 5 43 26 87 121
256 100 177 157 288 176 342 17 47 3 108 -32 141 -75 70 -232 -9 -460 -230
-29 -28 -53 -49 -53 -47 0 3 14 32 32 65 39 75 43 120 14 162 -24 35 -106 84
-153 91 -35 6 -34 7 -64 -108 -30 -118 -71 -183 -204 -323 -251 -262 -430
-392 -540 -392 -110 0 -113 83 -12 272 22 43 48 80 56 82 9 3 53 12 99 20 282
53 436 154 447 295 6 65 -12 111 -56 142 -31 22 -44 24 -139 24 -125 -1 -194
-21 -310 -93 -68 -42 -170 -133 -227 -204 -19 -24 -26 -26 -54 -18 -17 5 -33
11 -35 13 -2 2 12 21 31 43 38 42 75 110 75 138 0 31 -30 75 -61 91 -119 62
-276 -68 -229 -189 6 -16 29 -45 51 -66 l40 -36 -102 -125 c-141 -172 -151
-184 -236 -271 -90 -92 -143 -131 -179 -130 -76 0 -55 94 73 327 121 221 173
328 173 360 0 61 -55 116 -149 150 -44 15 -76 9 -77 -15 -1 -64 -71 -249 -160
-420 -57 -110 -208 -309 -270 -357 -92 -70 -85 30 19 287 46 114 51 132 51
205 1 128 -51 213 -166 271 -220 111 -424 29 -647 -261 -70 -91 -242 -269
-345 -358 -172 -148 -317 -208 -385 -161 -21 15 -23 22 -18 71 3 35 20 83 47
138 58 116 71 131 123 139 81 12 102 17 177 37 98 26 206 79 252 123 56 53 72
91 73 168 0 60 -3 70 -30 98 -36 38 -87 52 -173 49 -160 -6 -317 -82 -456
-221 l-50 -49 -68 13 -69 14 105 176 c57 97 152 254 211 348 116 183 128 219
92 273 -22 34 -97 78 -145 84 l-39 5 -6 -46 c-9 -63 -66 -180 -183 -371 -53
-88 -134 -223 -180 -300 l-84 -139 -207 3 c-115 1 -209 3 -209 4 -1 1 50 90
113 197 62 107 122 214 133 236 54 116 37 249 -42 325 -52 50 -70 52 -428 54
-370 3 -530 10 -665 30 -16 2 -52 7 -80 10 -27 4 -57 8 -65 10 -8 2 -31 7 -50
10 -59 10 -184 44 -226 61 -159 65 -229 119 -270 207 l-23 50 -11 -42z m3800
-1041 c26 -26 25 -54 -4 -115 -71 -151 -418 -535 -542 -598 -76 -39 -69 54 16
223 120 240 333 469 465 501 44 10 43 11 65 -11z m1144 -15 c5 -15 -23 -103
-43 -135 -8 -11 -12 -8 -22 15 -16 42 -15 79 5 109 18 29 51 34 60 11z m-1936
-122 c9 -64 -174 -154 -381 -187 l-38 -6 21 30 c65 92 253 193 350 187 38 -2
46 -6 48 -24z m2660 0 c4 -31 -45 -76 -126 -114 -62 -30 -279 -85 -290 -74 -9
9 100 110 152 140 87 51 157 75 211 72 43 -2 50 -5 53 -24z"/>
<path d="M5180 6148 c0 -13 8 -18 33 -19 43 -1 5301 -1 5353 0 29 1 41 5 41
16 0 8 -3 16 -6 16 -3 1 -1224 2 -2713 3 -2573 1 -2708 0 -2708 -16z"/>
<path d="M5202 5946 c-5 -9 -8 -217 -3 -297 1 -14 14 -17 79 -17 70 0 78 2 79
19 2 17 -5 19 -58 19 l-59 0 0 143 c0 122 -2 144 -15 144 -8 0 -19 -5 -23 -11z"/>
<path d="M5590 5832 c0 -144 10 -172 68 -195 67 -27 146 -4 173 49 11 24 15
61 15 149 -1 105 -3 118 -18 121 -22 3 -20 12 -22 -121 -1 -87 -5 -116 -20
-137 -33 -50 -120 -45 -145 8 -6 14 -11 75 -11 139 0 108 -1 114 -20 112 -19
-1 -20 -8 -20 -125z"/>
<path d="M6030 5953 c0 -1 21 -36 46 -77 l46 -75 -46 -79 c-25 -43 -46 -82
-46 -85 0 -4 9 -7 20 -7 13 0 30 20 55 65 20 36 38 65 40 65 2 0 16 -21 31
-47 37 -65 54 -83 76 -83 10 0 18 2 18 5 0 8 -41 77 -71 121 l-28 41 45 76
c24 42 44 78 44 80 0 2 -10 3 -22 2 -16 -1 -32 -18 -56 -59 l-34 -58 -35 59
c-27 46 -40 59 -59 59 -13 0 -24 -1 -24 -3z"/>
<path d="M6463 5953 c-19 -7 -17 -213 1 -258 39 -92 187 -95 233 -4 8 15 13
69 13 146 0 101 -2 121 -15 119 -8 -1 -17 -4 -19 -7 -3 -3 -6 -56 -7 -118 -1
-100 -3 -115 -23 -138 -32 -37 -86 -41 -123 -9 -27 24 -28 27 -30 138 -1 62
-2 119 -2 126 -1 13 -7 14 -28 5z"/>
<path d="M6926 5951 c-2 -3 -3 -76 -2 -161 1 -148 2 -155 21 -155 18 0 20 7
20 67 0 36 2 69 6 72 3 3 29 -28 59 -69 40 -57 59 -75 76 -75 13 0 24 3 24 8
0 4 -22 35 -50 69 -53 65 -62 88 -32 79 12 -4 28 3 45 18 35 32 36 84 5 121
-20 22 -32 26 -96 29 -39 2 -74 1 -76 -3z m134 -51 c23 -23 25 -39 7 -64 -15
-21 -96 -31 -98 -13 -4 37 -5 83 -1 90 7 15 72 7 92 -13z"/>
<path d="M7332 5921 c12 -20 37 -60 55 -89 29 -46 33 -60 33 -123 0 -55 3 -71
16 -76 24 -9 30 9 27 78 -2 59 1 67 47 145 54 89 59 104 33 99 -10 -2 -21 -4
-25 -4 -5 -1 -8 -5 -8 -10 0 -5 -14 -34 -32 -65 -25 -43 -35 -53 -45 -44 -7 6
-13 16 -13 22 0 6 -13 31 -30 56 -21 31 -36 45 -54 46 l-26 1 22 -36z"/>
<path d="M8214 5951 c-2 -2 -4 -75 -4 -161 l0 -157 90 -1 c82 0 90 1 90 18 0
17 -9 19 -67 22 l-68 3 0 55 0 55 68 3 c56 2 67 6 67 20 0 15 -10 18 -67 17
l-68 0 0 45 c0 50 -10 45 103 49 24 1 32 6 32 19 0 16 -10 18 -86 18 -47 -1
-88 -3 -90 -5z"/>
<path d="M8603 5945 c-4 -12 110 -302 126 -318 4 -4 35 59 68 140 80 196 78
191 52 189 -23 -1 -25 -5 -82 -165 l-33 -94 -17 44 c-9 24 -30 83 -47 130 -21
58 -36 86 -46 86 -9 0 -18 -6 -21 -12z"/>
<path d="M9082 5946 c-3 -5 -6 -76 -6 -158 -1 -169 -10 -156 102 -157 65 0 72
2 72 20 0 17 -7 19 -65 19 -69 0 -67 -1 -67 55 0 68 -3 65 67 65 56 0 65 2 65
18 0 16 -9 18 -64 17 -61 -1 -65 1 -69 24 -3 14 -1 36 4 49 8 21 14 23 67 21
50 -3 57 -1 60 17 3 18 -3 20 -78 19 -45 0 -84 -4 -88 -9z"/>
<path d="M9465 5798 c0 -156 1 -163 20 -163 19 0 20 7 20 123 l0 123 24 -28
c27 -32 169 -189 189 -210 7 -7 17 -13 21 -13 5 0 8 294 2 322 0 3 -9 5 -18 4
-16 -3 -18 -16 -18 -119 1 -65 -2 -117 -6 -117 -4 0 -19 15 -34 33 -15 17 -60
67 -99 111 -39 43 -72 82 -74 87 -2 5 -9 9 -16 9 -8 0 -11 -43 -11 -162z"/>
<path d="M9921 5952 c-7 -2 -8 -10 -1 -21 7 -14 18 -17 50 -14 l40 4 0 -145
c0 -139 1 -146 20 -146 18 0 20 7 21 83 0 45 1 109 2 142 l2 60 38 1 c43 2 66
17 45 30 -13 8 -195 13 -217 6z"/>
<path d="M10412 5950 c-13 -6 -30 -26 -38 -45 -13 -31 -13 -39 1 -66 9 -17 32
-37 53 -46 95 -41 99 -44 88 -88 -13 -52 -89 -54 -110 -4 -11 26 -14 28 -31
16 -17 -14 -17 -15 0 -45 28 -46 88 -57 146 -26 36 18 50 60 35 104 -11 34
-34 51 -117 85 -35 14 -38 59 -5 80 20 14 29 14 48 4 13 -6 26 -18 30 -25 12
-19 48 -6 40 14 -17 45 -83 64 -140 42z"/>
<path d="M4726 11040 c-61 -19 -116 -99 -116 -168 0 -105 77 -182 182 -182
145 0 233 182 141 291 -49 58 -132 81 -207 59z"/>
<path d="M9165 11036 c-70 -32 -111 -107 -102 -190 9 -93 62 -143 161 -153 47
-5 61 -2 99 21 64 37 92 86 91 159 -1 102 -76 177 -174 177 -25 -1 -58 -7 -75
-14z"/>
<path d="M4107 10595 c-168 -43 -178 -282 -14 -338 181 -62 322 150 193 291
-44 50 -107 66 -179 47z"/>
<path d="M9824 10601 c-71 -18 -134 -103 -134 -183 1 -153 194 -230 305 -122
42 41 55 71 55 128 0 124 -105 206 -226 177z"/>
<path d="M3558 10051 c-82 -26 -130 -89 -130 -170 0 -128 119 -216 236 -175
128 45 165 207 69 299 -46 43 -119 63 -175 46z"/>
<path d="M10355 10041 c-139 -63 -150 -249 -21 -322 80 -45 191 -18 237 58 28
45 33 141 9 188 -37 73 -149 111 -225 76z"/>
<path d="M3125 9417 c-126 -30 -181 -171 -110 -279 58 -88 186 -100 270 -27
134 118 15 347 -160 306z"/>
<path d="M10785 9402 c-161 -104 -118 -324 66 -340 175 -15 263 218 123 325
-47 35 -145 43 -189 15z"/>
<path d="M2744 8695 c-105 -63 -121 -196 -33 -284 127 -126 345 3 297 176 -31
114 -164 168 -264 108z"/>
<path d="M11125 8706 c-124 -57 -152 -214 -53 -302 57 -51 166 -58 226 -16 73
52 95 188 42 260 -46 62 -146 89 -215 58z"/>
<path d="M2610 7970 c-93 -17 -155 -87 -155 -174 1 -126 107 -207 230 -175 76
20 125 88 125 174 0 108 -98 193 -200 175z"/>
<path d="M11314 7951 c-90 -41 -128 -146 -84 -235 54 -113 189 -142 281 -59
47 42 71 109 60 169 -21 114 -147 175 -257 125z"/>
<path d="M2500 7189 c-64 -27 -112 -98 -113 -168 -2 -129 124 -214 248 -166
129 49 148 236 33 313 -44 28 -126 39 -168 21z"/>
<path d="M11382 7175 c-27 -12 -58 -36 -69 -51 -20 -29 -44 -89 -38 -96 1 -1
5 -20 8 -40 10 -76 75 -139 155 -151 70 -11 148 32 183 102 77 154 -80 309
-239 236z"/>
<path d="M2559 6410 c-46 -20 -84 -63 -98 -109 -15 -51 -14 -75 5 -119 48
-116 180 -152 280 -77 84 64 88 204 9 274 -57 50 -130 62 -196 31z"/>
<path d="M11305 6400 c-166 -83 -92 -344 96 -335 42 2 99 28 129 60 33 35 51
113 38 163 -28 110 -157 165 -263 112z"/>
<path d="M2744 5660 c-83 -53 -113 -162 -68 -252 40 -78 162 -113 241 -69 122
69 126 240 6 318 -38 25 -141 27 -179 3z"/>
<path d="M11140 5668 c-51 -14 -86 -43 -109 -91 -34 -70 -23 -145 28 -200 51
-56 117 -74 184 -51 79 28 127 92 127 169 0 121 -111 205 -230 173z"/>
<path d="M3108 4970 c-132 -40 -171 -219 -68 -307 103 -88 255 -45 291 82 39
138 -88 266 -223 225z"/>
<path d="M10810 4966 c-48 -15 -74 -35 -98 -76 -68 -115 -5 -252 127 -275 68
-12 154 33 186 96 32 60 21 153 -22 201 -44 49 -132 73 -193 54z"/>
<path d="M3522 4319 c-124 -62 -130 -243 -9 -314 77 -45 164 -30 224 38 133
151 -34 365 -215 276z"/>
<path d="M10356 4330 c-69 -21 -123 -113 -114 -195 15 -128 147 -194 265 -134
55 29 82 68 89 133 17 131 -110 235 -240 196z"/>
<path d="M4118 3790 c-44 -8 -102 -50 -122 -88 -64 -124 20 -272 154 -272 134
0 224 153 159 270 -38 67 -114 103 -191 90z"/>
<path d="M9772 3763 c-96 -63 -109 -209 -26 -287 53 -48 159 -58 224 -20 63
38 98 145 70 216 -42 106 -175 151 -268 91z"/>
<path d="M4714 3331 c-96 -44 -134 -164 -80 -256 55 -94 174 -115 264 -48 85
63 92 197 15 269 -59 55 -129 67 -199 35z"/>
<path d="M9165 3334 c-114 -62 -146 -192 -68 -284 32 -39 66 -56 122 -63 56
-6 97 8 138 46 90 85 66 239 -46 297 -39 20 -112 22 -146 4z"/>
<path d="M5411 3002 c-41 -21 -62 -44 -82 -87 -80 -174 135 -338 278 -212 59
52 77 121 52 198 -32 95 -159 147 -248 101z"/>
<path d="M8461 3004 c-93 -40 -134 -161 -86 -253 8 -17 34 -43 57 -59 56 -37
147 -39 199 -3 61 41 74 68 74 146 0 62 -3 75 -30 112 -49 68 -136 91 -214 57z"/>
<path d="M6176 2805 c-122 -43 -157 -194 -68 -288 38 -41 74 -57 126 -57 56 0
93 14 130 48 52 50 68 137 38 205 -23 51 -48 74 -99 93 -48 17 -78 17 -127 -1z"/>
<path d="M7724 2807 c-68 -26 -109 -77 -119 -148 -11 -76 25 -144 97 -180 134
-68 284 44 255 191 -22 111 -131 176 -233 137z"/>
<path d="M6935 2731 c-50 -23 -79 -55 -95 -104 -32 -102 30 -211 135 -235 105
-23 215 67 215 176 0 135 -132 220 -255 163z"/>
<path d="M10200 1845 c0 -14 4 -25 9 -25 4 0 6 11 3 25 -2 14 -6 25 -8 25 -2
0 -4 -11 -4 -25z"/>
<path d="M81 5036 c12 -10 59 -15 59 -6 0 5 -14 10 -32 10 -17 0 -29 -2 -27
-4z"/>
<path d="M8991 114 c0 -11 3 -14 6 -6 3 7 2 16 -1 19 -3 4 -6 -2 -5 -13z"/>
</g>
</svg>
